<?xml version="1.0" encoding="iso-8859-1"?>
<!-- Generator: Adobe Illustrator 19.0.0, SVG Export Plug-In . SVG Version: 6.00 Build 0)  -->
<svg version="1.1" id="Layer_1" xmlns="http://www.w3.org/2000/svg" xmlns:xlink="http://www.w3.org/1999/xlink" x="0px" y="0px"
	 viewBox="0 0 309.537 309.537" style="enable-background:new 0 0 309.537 309.537;" xml:space="preserve">
<g>
	<path style="fill:#E2574C;" d="M270.744,0.271V0c0,0-156.827,0.193-212.573,0.251c-10.931,0-19.378,8.215-19.378,19.378v289.899
		h212.621c10.67,0,19.329-8.659,19.329-19.329V19.59h19.329V0.261C290.073,0.261,270.744,0.271,270.744,0.271z"/>
	<path style="fill:#B53629;" d="M232.086,290.208c0-10.67,8.659-19.329,19.329-19.329H19.464c-10.67,0-19.329,8.659-19.329,19.329
		s8.659,19.329,19.329,19.329h231.95C240.745,309.538,232.086,300.878,232.086,290.208z"/>
	<path style="fill:#B53629;" d="M290.073,0.271c-10.67,0-19.329,8.659-19.329,19.329v19.329h19.329
		c10.67,0,19.329-8.659,19.329-19.329C309.402,8.92,300.743,0.271,290.073,0.271z"/>
	<path style="fill:#FFFFFF;" d="M217.569,137.15c3.247,0,4.832-2.832,4.832-5.567c0-2.832-1.662-5.567-4.832-5.567h-18.44
		c-3.586,0-5.605,2.986-5.605,6.282v45.317c0,4.04,2.3,6.282,5.402,6.282c3.102,0,5.403-2.242,5.403-6.282v-12.438h11.153
		c3.47,0,5.19-2.832,5.19-5.644c0-2.754-1.72-5.49-5.19-5.49h-11.153V137.15H217.569z M155.242,126.017H141.75
		c-3.663,0-6.263,2.513-6.263,6.243v45.395c0,4.629,3.74,6.079,6.437,6.079h14.139c16.758,0,27.824-11.027,27.824-28.047
		C183.879,137.701,173.479,126.017,155.242,126.017z M155.9,172.542h-8.234v-35.334h7.422c11.211,0,16.101,7.529,16.101,17.918
		C171.189,164.839,166.395,172.542,155.9,172.542z M106.465,126.017H93.099c-3.779,0-5.866,2.493-5.866,6.282v45.317
		c0,4.04,2.397,6.282,5.644,6.282s5.683-2.242,5.683-6.282v-13.221h8.36c10.341,0,18.875-7.326,18.875-19.107
		C125.794,133.758,117.56,126.017,106.465,126.017z M106.243,153.764H98.56v-17.106h7.683c4.755,0,7.78,3.702,7.78,8.553
		C114.013,150.043,110.998,153.764,106.243,153.764z"/>
</g>
<g>
</g>
<g>
</g>
<g>
</g>
<g>
</g>
<g>
</g>
<g>
</g>
<g>
</g>
<g>
</g>
<g>
</g>
<g>
</g>
<g>
</g>
<g>
</g>
<g>
</g>
<g>
</g>
<g>
</g>
</svg>
